<svg width="17" height="18" viewBox="0 0 17 18" fill="none" xmlns="http://www.w3.org/2000/svg">
<path d="M6.39171 5.23829C6.39159 5.34129 6.41172 5.4433 6.45095 5.53846C6.49017 5.63361 6.54772 5.72004 6.62029 5.79278L9.81255 9.00037L6.62087 12.208C6.47457 12.355 6.39237 12.5544 6.39237 12.7624C6.39237 12.9703 6.47457 13.1697 6.62087 13.3167C6.76718 13.4638 6.96561 13.5464 7.17252 13.5464C7.37942 13.5464 7.57786 13.4638 7.72416 13.3167L11.4674 9.55467C11.6136 9.40764 11.6958 9.20826 11.6958 9.00037C11.6958 8.79248 11.6136 8.5931 11.4674 8.44607L7.72416 4.68399C7.6151 4.57411 7.47604 4.49923 7.3246 4.46884C7.17316 4.43845 7.01615 4.45391 6.87347 4.51327C6.73078 4.57263 6.60883 4.67321 6.52307 4.80228C6.4373 4.93134 6.39159 5.08309 6.39171 5.23829Z" fill="#0A6075"/>
<circle cx="8.66508" cy="9.00004" r="7.835" stroke="#0A6075"/>
</svg>
